<?xml version="1.0" encoding="UTF-8"?>
<svg id="katman_1" xmlns="http://www.w3.org/2000/svg" version="1.1" viewBox="0 0 590 109">
  <!-- Generator: Adobe Illustrator 30.4.0, SVG Export Plug-In . SVG Version: 2.1.4 Build 226)  -->
  <defs>
    <style>
      .st0, .st1 {
        fill: #fff;
        stroke: #fff;
        stroke-miterlimit: 10;
      }

      .st2 {
        fill: #fe6c28;
      }

      .st1 {
        stroke-width: .75px;
      }
    </style>
  </defs>
  <path class="st0" d="M16.02,76.28h61.66c4.73-1.37,7.72-5.9,7.15-10.47-.5-3.98-3.64-7.31-7.79-8.17-16-.21-32-.43-48-.64-9.27-1.97-16.07-9.85-16.6-19.02-.56-9.86,6.26-18.98,16.21-21.32h67.79c3.04,1.05,5.13,3.86,5.23,7.02.11,3.34-2.01,6.42-5.23,7.53-20.09.09-40.17.17-60.26.26-4.14-.03-6.8,3.4-6.35,6,.38,2.19,3.05,4.22,6.35,3.96,14.09.43,28.17.85,42.26,1.28,11.14,1.64,19.88,10.01,21.62,20.31,2.05,12.15-6,24.77-19.06,28.33l-64.98.51c-3.45-.94-5.89-4.02-6-7.53-.12-3.69,2.37-7.05,6-8.04Z"/>
  <path class="st0" d="M125.72,76.23h75.74c3.11,1.1,5.31,3.84,5.62,6.98.36,3.68-1.93,7.28-5.62,8.64h-75.74c-4.39-1.25-7.01-5.44-6.3-9.32.55-3.01,3.04-5.5,6.3-6.3Z"/>
  <path class="st0" d="M120.96,42.53c-.64,1.3-1.43,3.34-1.65,5.96-.33,4.06.94,7.21,1.65,8.68h37.28c.7-1.4,1.95-4.41,1.7-8.34-.18-2.82-1.06-5-1.7-6.3h-37.28Z"/>
  <path class="st0" d="M122.66,16.66c-.61.53-2.95,2.7-3.35,6.3-.55,4.9,2.98,8.18,3.35,8.51h81.7c.54-.63,3.06-3.7,2.76-8.17-.24-3.53-2.1-5.87-2.76-6.64h-81.7Z"/>
  <path class="st0" d="M228.96,16.66h81.7c.78.84,2.36,2.78,2.89,5.7.88,4.78-1.71,8.43-2.21,9.11h-27.91c-.35.04-3.35.48-4.6,2.98-.41.83-.51,1.63-.51,2.21v51.06c-2.08,3.78-6.16,5.75-9.87,4.94-3.93-.86-5.72-4.45-5.96-4.94v-50.38c.04-.41.17-2.15-1.02-3.74-1.42-1.9-3.58-2.1-3.91-2.13h-28.6c-.58-.68-2.72-3.36-2.72-7.4s2.14-6.72,2.72-7.4Z"/>
  <path class="st1" d="M354.15,90.96h11.49c.16.01.32.01.48,0,2.84-.21,4.62-4.18,5.11-5.36,6.82-14.38,13.64-28.77,20.46-43.15.95-1.51,2.61-2.39,4.34-2.28,2.24.14,3.47,1.89,3.62,2.11,11.94,23.76,20.9,40.93,22.69,44.09.74,1.31,2.15,3.61,4.73,4.36.48.14.96.21,1.4.24h8.68c.32,0,1.39-.02,2.22-.8,1-.94,1.26-2.57.59-4.05-11.32-21.96-22.64-43.91-33.96-65.87-.24-.54-.93-1.89-2.47-2.8-.94-.55-1.82-.72-2.38-.78h-8.68c-1.8,0-3.54-.05-5.12,1.1-.99.72-1.56,1.64-1.88,2.3-16.72,33.72-29.06,58.95-31.29,64.01-1.65,3.73-1.92,5.8-1.05,6.54.2.17.52.33,1.05.35Z"/>
  <path class="st2" d="M333.92,3.27v101.62l241.02-.51V3.27h-241.02ZM454.94,101.48h-117.11V7.1h117.11v94.38ZM543.08,60.73c-14-.04-28-.09-42-.13-3.25-.99-5.49-4.01-5.49-7.4s2.24-6.42,5.49-7.4c12.85.04,25.7.09,38.55.13,3.02-.72,4.9-3.55,4.47-6.26-.35-2.2-2.2-4.02-4.6-4.47-14.85.04-29.7.09-44.55.13-.36,0-2.77,0-4.52,1.96-1.48,1.65-1.49,3.59-1.48,4.04v48.77c-.86,4.2-4.67,7.1-8.73,6.83-3.68-.25-6.85-3.04-7.61-6.83.47-22.09.94-44.17,1.4-66.26.04-.62.22-1.09.38-1.4,1.16-2.21,4.43-2.17,4.6-2.17h64.09c9.2,1.72,16.21,8.87,17.36,17.36,1.39,10.26-5.98,20.75-17.36,23.11Z"/>
</svg>